<svg width="594" height="715" viewBox="0 0 594 715" fill="none" xmlns="http://www.w3.org/2000/svg">
<g filter="url(#filter0_d_1_58637)">
<g clip-path="url(#clip0_1_58637)">
<rect x="25" y="25" width="545" height="665" rx="6" fill="#54BD95"/>
<rect x="50" y="153.586" width="493.209" height="490.415" rx="10" fill="#87E1BF"/>
<rect x="75" y="179" width="444" height="438" rx="6" fill="#F5FAFA"/>
<rect x="41" y="250" width="511" height="148" rx="10" fill="white"/>
<g filter="url(#filter1_d_1_58637)">
<rect x="66.1484" y="275.146" width="97.8035" height="97.8035" rx="10" fill="#0F8CE9"/>
</g>
<path d="M115.051 305.885C123.539 305.885 130.421 312.274 130.421 320.156C130.421 321.507 130.218 322.814 129.841 324.052C134.802 324.115 138.805 328.155 138.805 333.131C138.805 338.146 134.738 342.213 129.723 342.213H100.381C95.3652 342.213 91.299 338.147 91.2988 333.131C91.2988 328.155 95.3003 324.116 100.261 324.052C99.8833 322.814 99.6816 321.507 99.6816 320.156C99.6817 312.274 106.563 305.885 115.051 305.885Z" fill="#DBE5FA"/>
<rect x="194" y="354.449" width="299" height="13.9719" rx="6.98596" fill="#87E1BF"/>
<rect x="194" y="354.449" width="144.779" height="13.9719" rx="6.98596" fill="#54BD95"/>
<rect x="194" y="323.711" width="163.663" height="8.38316" rx="4.19158" fill="#87E1BF"/>
<rect x="194" y="279" width="299" height="22.3551" rx="11.1775" fill="#87E1BF"/>
<rect x="41.5" y="433.5" width="510" height="147.102" rx="9.5" fill="white" stroke="#EFF2F7"/>
<rect x="194" y="537.449" width="332.793" height="13.9719" rx="6.98596" fill="#87E1BF"/>
<rect x="194" y="537.449" width="238.21" height="13.9719" rx="6.98596" fill="#54BD95"/>
<rect x="194" y="506.711" width="182.16" height="8.38316" rx="4.19158" fill="#87E1BF"/>
<rect x="194" y="462" width="332.793" height="22.3551" rx="11.1775" fill="#87E1BF"/>
<g filter="url(#filter2_d_1_58637)">
<rect x="66" y="458" width="102.787" height="97.8035" rx="10" fill="white"/>
</g>
<g clip-path="url(#clip1_1_58637)">
<path d="M126.619 502.027H107.505C106.42 502.027 105.541 502.923 105.541 504.027C105.541 505.131 106.42 506.026 107.505 506.026V507.359C107.505 508.464 108.384 509.359 109.469 509.359C110.553 509.359 111.432 508.464 111.432 507.359V506.026H122.691V507.359C122.691 508.464 123.571 509.359 124.655 509.359C125.74 509.359 126.619 508.464 126.619 507.359V506.026C127.704 506.026 128.583 505.131 128.583 504.027C128.583 502.923 127.704 502.027 126.619 502.027Z" fill="#54BD95"/>
<path d="M117.062 492.695C114.893 492.695 113.135 494.486 113.135 496.694H120.99C120.99 494.486 119.231 492.695 117.062 492.695Z" fill="#54BD95"/>
<path d="M117.062 478.854C101.875 478.854 89.5625 491.39 89.5625 506.854C89.5625 522.318 101.875 534.854 117.062 534.854C132.25 534.854 144.562 522.318 144.562 506.854C144.562 491.39 132.25 478.854 117.062 478.854ZM133.82 518.823C133.82 521.032 132.062 522.822 129.893 522.822H104.232C102.063 522.822 100.305 521.032 100.305 518.823V500.694C100.305 498.486 102.063 496.695 104.232 496.695H109.207C109.207 492.278 112.724 488.697 117.062 488.697C121.401 488.697 124.918 492.278 124.918 496.695H129.893C132.062 496.695 133.82 498.486 133.82 500.694V518.823H133.82Z" fill="#54BD95"/>
</g>
<mask id="path-21-inside-1_1_58637" fill="white">
<path d="M429.467 178.733C429.467 161.303 426.033 144.042 419.363 127.938C412.692 111.835 402.915 97.2021 390.59 84.8767C378.264 72.5513 363.632 62.7742 347.528 56.1037C331.424 49.4332 314.164 46 296.733 46C279.303 46 262.042 49.4332 245.938 56.1037C229.835 62.7742 215.202 72.5513 202.877 84.8767C190.551 97.2021 180.774 111.835 174.104 127.938C167.433 144.042 164 161.303 164 178.733L211.523 178.733C211.523 167.543 213.727 156.463 218.009 146.125C222.291 135.786 228.568 126.393 236.48 118.48C244.393 110.568 253.786 104.291 264.125 100.009C274.463 95.7269 285.543 93.5228 296.733 93.5228C307.923 93.5228 319.004 95.7269 329.342 100.009C339.68 104.291 349.074 110.568 356.986 118.48C364.899 126.393 371.175 135.786 375.458 146.125C379.74 156.463 381.944 167.543 381.944 178.733H429.467Z"/>
</mask>
<path d="M429.467 178.733C429.467 161.303 426.033 144.042 419.363 127.938C412.692 111.835 402.915 97.2021 390.59 84.8767C378.264 72.5513 363.632 62.7742 347.528 56.1037C331.424 49.4332 314.164 46 296.733 46C279.303 46 262.042 49.4332 245.938 56.1037C229.835 62.7742 215.202 72.5513 202.877 84.8767C190.551 97.2021 180.774 111.835 174.104 127.938C167.433 144.042 164 161.303 164 178.733L211.523 178.733C211.523 167.543 213.727 156.463 218.009 146.125C222.291 135.786 228.568 126.393 236.48 118.48C244.393 110.568 253.786 104.291 264.125 100.009C274.463 95.7269 285.543 93.5228 296.733 93.5228C307.923 93.5228 319.004 95.7269 329.342 100.009C339.68 104.291 349.074 110.568 356.986 118.48C364.899 126.393 371.175 135.786 375.458 146.125C379.74 156.463 381.944 167.543 381.944 178.733H429.467Z" stroke="#52459F" stroke-width="68" mask="url(#path-21-inside-1_1_58637)"/>
<mask id="path-22-inside-2_1_58637" fill="white">
<path d="M429.467 178.733C429.467 143.53 415.482 109.769 390.59 84.8767C365.698 59.9844 331.936 46 296.733 46C261.53 46 227.769 59.9844 202.877 84.8767C177.984 109.769 164 143.53 164 178.733H211.546C211.546 156.14 220.521 134.473 236.497 118.497C252.473 102.521 274.14 93.5464 296.733 93.5464C319.326 93.5464 340.994 102.521 356.97 118.497C372.945 134.473 381.92 156.14 381.92 178.733H429.467Z"/>
</mask>
<path d="M429.467 178.733C429.467 143.53 415.482 109.769 390.59 84.8767C365.698 59.9844 331.936 46 296.733 46C261.53 46 227.769 59.9844 202.877 84.8767C177.984 109.769 164 143.53 164 178.733H211.546C211.546 156.14 220.521 134.473 236.497 118.497C252.473 102.521 274.14 93.5464 296.733 93.5464C319.326 93.5464 340.994 102.521 356.97 118.497C372.945 134.473 381.92 156.14 381.92 178.733H429.467Z" stroke="#0F8CE9" stroke-width="68" mask="url(#path-22-inside-2_1_58637)"/>
<mask id="path-23-inside-3_1_58637" fill="white">
<path d="M429.467 178.733C429.467 151.336 420.988 124.609 405.196 102.222C389.403 79.8337 367.069 62.8814 341.259 53.6909L325.309 98.4824C341.874 104.381 356.208 115.261 366.343 129.629C376.479 143.997 381.92 161.15 381.92 178.733H429.467Z"/>
</mask>
<path d="M429.467 178.733C429.467 151.336 420.988 124.609 405.196 102.222C389.403 79.8337 367.069 62.8814 341.259 53.6909L325.309 98.4824C341.874 104.381 356.208 115.261 366.343 129.629C376.479 143.997 381.92 161.15 381.92 178.733H429.467Z" stroke="#54BD95" stroke-width="68" mask="url(#path-23-inside-3_1_58637)"/>
<mask id="path-24-inside-4_1_58637" fill="white">
<path d="M429.467 178.733C429.467 152.531 421.712 126.915 407.178 105.113C392.645 83.3102 371.984 66.2969 347.799 56.2163L329.507 100.103C345.029 106.573 358.289 117.492 367.616 131.484C376.943 145.477 381.92 161.917 381.92 178.733H429.467Z"/>
</mask>
<path d="M429.467 178.733C429.467 152.531 421.712 126.915 407.178 105.113C392.645 83.3102 371.984 66.2969 347.799 56.2163L329.507 100.103C345.029 106.573 358.289 117.492 367.616 131.484C376.943 145.477 381.92 161.917 381.92 178.733H429.467Z" stroke="#FEE900" stroke-width="68" mask="url(#path-24-inside-4_1_58637)"/>
<path d="M174.124 206.846C173.67 206.84 173.222 206.757 172.782 206.598C172.344 206.439 171.946 206.173 171.588 205.802C171.23 205.431 170.944 204.932 170.728 204.306C170.516 203.679 170.41 202.897 170.41 201.959C170.41 201.071 170.498 200.282 170.674 199.593C170.853 198.903 171.109 198.322 171.444 197.848C171.779 197.37 172.183 197.007 172.657 196.759C173.131 196.51 173.663 196.386 174.253 196.386C174.86 196.386 175.398 196.505 175.869 196.744C176.34 196.983 176.721 197.312 177.012 197.733C177.307 198.154 177.495 198.633 177.574 199.17H176.058C175.955 198.746 175.751 198.4 175.446 198.131C175.141 197.863 174.744 197.728 174.253 197.728C173.507 197.728 172.926 198.053 172.508 198.703C172.094 199.352 171.885 200.256 171.882 201.412H171.956C172.132 201.124 172.347 200.879 172.603 200.676C172.861 200.471 173.15 200.314 173.468 200.204C173.789 200.092 174.127 200.035 174.482 200.035C175.072 200.035 175.605 200.179 176.083 200.468C176.563 200.753 176.946 201.147 177.231 201.651C177.516 202.155 177.659 202.731 177.659 203.381C177.659 204.031 177.511 204.619 177.216 205.146C176.925 205.673 176.514 206.091 175.983 206.399C175.453 206.704 174.833 206.853 174.124 206.846ZM174.119 205.554C174.51 205.554 174.86 205.458 175.168 205.265C175.476 205.073 175.72 204.815 175.899 204.49C176.078 204.165 176.167 203.802 176.167 203.401C176.167 203.01 176.079 202.654 175.904 202.332C175.731 202.011 175.493 201.755 175.188 201.566C174.886 201.377 174.542 201.283 174.154 201.283C173.859 201.283 173.585 201.339 173.333 201.452C173.085 201.565 172.866 201.721 172.677 201.919C172.488 202.118 172.339 202.347 172.23 202.605C172.124 202.861 172.071 203.131 172.071 203.416C172.071 203.797 172.158 204.15 172.334 204.475C172.513 204.8 172.757 205.061 173.065 205.26C173.377 205.456 173.728 205.554 174.119 205.554ZM183.014 206.876C182.229 206.873 181.558 206.666 181.001 206.255C180.444 205.844 180.018 205.245 179.723 204.46C179.428 203.674 179.281 202.728 179.281 201.621C179.281 200.517 179.428 199.574 179.723 198.792C180.021 198.01 180.449 197.413 181.006 197.002C181.566 196.592 182.235 196.386 183.014 196.386C183.793 196.386 184.461 196.593 185.018 197.007C185.575 197.418 186.001 198.015 186.296 198.797C186.594 199.576 186.743 200.517 186.743 201.621C186.743 202.731 186.596 203.679 186.301 204.465C186.006 205.247 185.58 205.845 185.023 206.26C184.466 206.671 183.797 206.876 183.014 206.876ZM183.014 205.549C183.704 205.549 184.242 205.212 184.63 204.539C185.021 203.867 185.217 202.894 185.217 201.621C185.217 200.776 185.127 200.062 184.948 199.478C184.773 198.892 184.519 198.448 184.188 198.146C183.86 197.841 183.468 197.689 183.014 197.689C182.328 197.689 181.79 198.027 181.399 198.703C181.008 199.379 180.81 200.352 180.807 201.621C180.807 202.47 180.895 203.187 181.07 203.774C181.249 204.357 181.503 204.8 181.831 205.101C182.159 205.4 182.554 205.549 183.014 205.549ZM193.821 204.798V204.261C193.821 203.877 193.901 203.525 194.06 203.207C194.222 202.886 194.458 202.629 194.766 202.436C195.078 202.241 195.454 202.143 195.895 202.143C196.345 202.143 196.723 202.239 197.028 202.431C197.333 202.624 197.563 202.881 197.719 203.202C197.878 203.524 197.958 203.877 197.958 204.261V204.798C197.958 205.182 197.878 205.535 197.719 205.857C197.56 206.175 197.326 206.432 197.018 206.627C196.713 206.82 196.339 206.916 195.895 206.916C195.447 206.916 195.069 206.82 194.761 206.627C194.453 206.432 194.219 206.175 194.06 205.857C193.901 205.535 193.821 205.182 193.821 204.798ZM194.98 204.261V204.798C194.98 205.083 195.048 205.342 195.184 205.574C195.319 205.806 195.556 205.922 195.895 205.922C196.229 205.922 196.463 205.806 196.596 205.574C196.728 205.342 196.794 205.083 196.794 204.798V204.261C196.794 203.976 196.73 203.717 196.6 203.485C196.475 203.253 196.239 203.137 195.895 203.137C195.563 203.137 195.328 203.253 195.189 203.485C195.049 203.717 194.98 203.976 194.98 204.261ZM188.701 198.971V198.434C188.701 198.05 188.78 197.697 188.939 197.375C189.102 197.054 189.337 196.797 189.645 196.605C189.957 196.413 190.333 196.316 190.774 196.316C191.225 196.316 191.602 196.413 191.907 196.605C192.212 196.797 192.443 197.054 192.598 197.375C192.754 197.697 192.832 198.05 192.832 198.434V198.971C192.832 199.356 192.752 199.709 192.593 200.03C192.438 200.348 192.206 200.605 191.897 200.801C191.592 200.993 191.218 201.089 190.774 201.089C190.323 201.089 189.944 200.993 189.635 200.801C189.33 200.605 189.098 200.348 188.939 200.03C188.78 199.709 188.701 199.356 188.701 198.971ZM189.864 198.434V198.971C189.864 199.256 189.93 199.515 190.063 199.747C190.199 199.979 190.436 200.095 190.774 200.095C191.105 200.095 191.337 199.979 191.47 199.747C191.606 199.515 191.674 199.256 191.674 198.971V198.434C191.674 198.149 191.609 197.891 191.48 197.659C191.35 197.427 191.115 197.311 190.774 197.311C190.442 197.311 190.207 197.427 190.068 197.659C189.932 197.891 189.864 198.149 189.864 198.434ZM189.173 206.707L196.173 196.525H197.361L190.361 206.707H189.173Z" fill="black"/>
<path d="M388.318 204.718V203.475L392.718 196.525H393.698V198.355H393.076L389.929 203.336V203.416H395.96V204.718H388.318ZM393.146 206.707V204.341L393.156 203.774V196.525H394.612V206.707H393.146ZM401.237 206.876C400.452 206.873 399.78 206.666 399.224 206.255C398.667 205.844 398.241 205.245 397.946 204.46C397.651 203.674 397.503 202.728 397.503 201.621C397.503 200.517 397.651 199.574 397.946 198.792C398.244 198.01 398.672 197.413 399.229 197.002C399.789 196.592 400.458 196.386 401.237 196.386C402.016 196.386 402.684 196.593 403.241 197.007C403.797 197.418 404.223 198.015 404.518 198.797C404.817 199.576 404.966 200.517 404.966 201.621C404.966 202.731 404.818 203.679 404.523 204.465C404.228 205.247 403.802 205.845 403.246 206.26C402.689 206.671 402.019 206.876 401.237 206.876ZM401.237 205.549C401.926 205.549 402.465 205.212 402.853 204.539C403.244 203.867 403.439 202.894 403.439 201.621C403.439 200.776 403.35 200.062 403.171 199.478C402.995 198.892 402.742 198.448 402.41 198.146C402.082 197.841 401.691 197.689 401.237 197.689C400.551 197.689 400.012 198.027 399.621 198.703C399.23 199.379 399.033 200.352 399.03 201.621C399.03 202.47 399.117 203.187 399.293 203.774C399.472 204.357 399.726 204.8 400.054 205.101C400.382 205.4 400.776 205.549 401.237 205.549ZM412.044 204.798V204.261C412.044 203.877 412.124 203.525 412.283 203.207C412.445 202.886 412.68 202.629 412.989 202.436C413.3 202.241 413.676 202.143 414.117 202.143C414.568 202.143 414.946 202.239 415.251 202.431C415.556 202.624 415.786 202.881 415.942 203.202C416.101 203.524 416.18 203.877 416.18 204.261V204.798C416.18 205.182 416.101 205.535 415.942 205.857C415.783 206.175 415.549 206.432 415.241 206.627C414.936 206.82 414.561 206.916 414.117 206.916C413.67 206.916 413.292 206.82 412.984 206.627C412.675 206.432 412.442 206.175 412.283 205.857C412.124 205.535 412.044 205.182 412.044 204.798ZM413.202 204.261V204.798C413.202 205.083 413.27 205.342 413.406 205.574C413.542 205.806 413.779 205.922 414.117 205.922C414.452 205.922 414.686 205.806 414.818 205.574C414.951 205.342 415.017 205.083 415.017 204.798V204.261C415.017 203.976 414.952 203.717 414.823 203.485C414.697 203.253 414.462 203.137 414.117 203.137C413.786 203.137 413.55 203.253 413.411 203.485C413.272 203.717 413.202 203.976 413.202 204.261ZM406.923 198.971V198.434C406.923 198.05 407.003 197.697 407.162 197.375C407.324 197.054 407.56 196.797 407.868 196.605C408.179 196.413 408.556 196.316 408.996 196.316C409.447 196.316 409.825 196.413 410.13 196.605C410.435 196.797 410.665 197.054 410.821 197.375C410.977 197.697 411.055 198.05 411.055 198.434V198.971C411.055 199.356 410.975 199.709 410.816 200.03C410.66 200.348 410.428 200.605 410.12 200.801C409.815 200.993 409.441 201.089 408.996 201.089C408.546 201.089 408.166 200.993 407.858 200.801C407.553 200.605 407.321 200.348 407.162 200.03C407.003 199.709 406.923 199.356 406.923 198.971ZM408.087 198.434V198.971C408.087 199.256 408.153 199.515 408.286 199.747C408.421 199.979 408.658 200.095 408.996 200.095C409.328 200.095 409.56 199.979 409.692 199.747C409.828 199.515 409.896 199.256 409.896 198.971V198.434C409.896 198.149 409.832 197.891 409.702 197.659C409.573 197.427 409.338 197.311 408.996 197.311C408.665 197.311 408.43 197.427 408.29 197.659C408.155 197.891 408.087 198.149 408.087 198.434ZM407.396 206.707L414.396 196.525H415.584L408.584 206.707H407.396Z" fill="black"/>
<circle cx="296.737" cy="178.731" r="54.4905" fill="#FEFEFD"/>
<circle cx="296.736" cy="178.73" r="41.9158" fill="#E6F9FD"/>
</g>
</g>
<defs>
<filter id="filter0_d_1_58637" x="0" y="0" width="593.5" height="715" filterUnits="userSpaceOnUse" color-interpolation-filters="sRGB">
<feFlood flood-opacity="0" result="BackgroundImageFix"/>
<feColorMatrix in="SourceAlpha" type="matrix" values="0 0 0 0 0 0 0 0 0 0 0 0 0 0 0 0 0 0 127 0" result="hardAlpha"/>
<feOffset/>
<feGaussianBlur stdDeviation="12.5"/>
<feComposite in2="hardAlpha" operator="out"/>
<feColorMatrix type="matrix" values="0 0 0 0 0.184233 0 0 0 0 0.223383 0 0 0 0 0.404167 0 0 0 0.15 0"/>
<feBlend mode="normal" in2="BackgroundImageFix" result="effect1_dropShadow_1_58637"/>
<feBlend mode="normal" in="SourceGraphic" in2="effect1_dropShadow_1_58637" result="shape"/>
</filter>
<filter id="filter1_d_1_58637" x="57.1484" y="270.146" width="115.803" height="115.803" filterUnits="userSpaceOnUse" color-interpolation-filters="sRGB">
<feFlood flood-opacity="0" result="BackgroundImageFix"/>
<feColorMatrix in="SourceAlpha" type="matrix" values="0 0 0 0 0 0 0 0 0 0 0 0 0 0 0 0 0 0 127 0" result="hardAlpha"/>
<feOffset dy="4"/>
<feGaussianBlur stdDeviation="4.5"/>
<feComposite in2="hardAlpha" operator="out"/>
<feColorMatrix type="matrix" values="0 0 0 0 0 0 0 0 0 0 0 0 0 0 0 0 0 0 0.05 0"/>
<feBlend mode="normal" in2="BackgroundImageFix" result="effect1_dropShadow_1_58637"/>
<feBlend mode="normal" in="SourceGraphic" in2="effect1_dropShadow_1_58637" result="shape"/>
</filter>
<filter id="filter2_d_1_58637" x="57" y="453" width="120.787" height="115.803" filterUnits="userSpaceOnUse" color-interpolation-filters="sRGB">
<feFlood flood-opacity="0" result="BackgroundImageFix"/>
<feColorMatrix in="SourceAlpha" type="matrix" values="0 0 0 0 0 0 0 0 0 0 0 0 0 0 0 0 0 0 127 0" result="hardAlpha"/>
<feOffset dy="4"/>
<feGaussianBlur stdDeviation="4.5"/>
<feComposite in2="hardAlpha" operator="out"/>
<feColorMatrix type="matrix" values="0 0 0 0 0 0 0 0 0 0 0 0 0 0 0 0 0 0 0.05 0"/>
<feBlend mode="normal" in2="BackgroundImageFix" result="effect1_dropShadow_1_58637"/>
<feBlend mode="normal" in="SourceGraphic" in2="effect1_dropShadow_1_58637" result="shape"/>
</filter>
<clipPath id="clip0_1_58637">
<rect x="25" y="25" width="543.5" height="665" rx="6" fill="white"/>
</clipPath>
<clipPath id="clip1_1_58637">
<rect width="55" height="56" fill="white" transform="translate(89.5625 478.854)"/>
</clipPath>
</defs>
</svg>
