<svg xmlns="http://www.w3.org/2000/svg" fill="none" viewBox="23.683189655172416 24.32 545.9935344827586 271.36" style="max-height: 500px" width="545.9935344827586" height="271.36">
<g filter="url(#filter0_d_1_58752)">
<rect fill="#F9F8FE" rx="6" height="269.5" width="543.5" y="25" x="25"/>
<rect fill="#87E1BF" rx="7.40217" height="14.8043" width="301" y="65.3047" x="135"/>
<rect fill="#87E1BF" rx="7.40217" height="14.8043" width="274.102" y="89.9785" x="135"/>
<rect fill="#87E1BF" rx="7.40217" height="14.8043" width="243.362" y="114.652" x="135"/>
<rect fill="#87E1BF" rx="7.40217" height="14.8043" width="215.183" y="139.326" x="135"/>
<rect fill="#87E1BF" rx="7.5" height="15" width="301" y="183.5" x="135"/>
<rect fill="#87E1BF" rx="7.5" height="15" width="274" y="208.5" x="135"/>
<rect fill="#87E1BF" rx="7" height="14" width="244" y="233.5" x="135"/>
<rect fill="#87E1BF" rx="7.5" height="15" width="215" y="257.5" x="135"/>
<rect fill="#54BD95" rx="2" height="88.8261" width="63" y="65.3047" x="50"/>
<rect fill="#0F8CE9" rx="2" height="88.8261" width="63" y="188.674" x="50"/>
<circle fill="#DBE5FA" r="30" cy="80.5" cx="498"/>
<circle fill="#0F8CE9" r="30" cy="164.5" cx="498"/>
<circle fill="#54BD95" r="30" cy="248.5" cx="498"/>
<circle fill="white" r="3.25" cy="248.812" cx="513.75"/>
<circle fill="white" r="4.875" cy="248.812" cx="501.562"/>
<circle fill="white" r="7.3125" cy="248.812" cx="485.312"/>
</g>
<defs>
<filter color-interpolation-filters="sRGB" filterUnits="userSpaceOnUse" height="319.5" width="593.5" y="0" x="0" id="filter0_d_1_58752">
<feFlood result="BackgroundImageFix" flood-opacity="0"/>
<feColorMatrix result="hardAlpha" values="0 0 0 0 0 0 0 0 0 0 0 0 0 0 0 0 0 0 127 0" type="matrix" in="SourceAlpha"/>
<feOffset/>
<feGaussianBlur stdDeviation="12.5"/>
<feComposite operator="out" in2="hardAlpha"/>
<feColorMatrix values="0 0 0 0 0.184233 0 0 0 0 0.223383 0 0 0 0 0.404167 0 0 0 0.15 0" type="matrix"/>
<feBlend result="effect1_dropShadow_1_58752" in2="BackgroundImageFix" mode="normal"/>
<feBlend result="shape" in2="effect1_dropShadow_1_58752" in="SourceGraphic" mode="normal"/>
</filter>
</defs>
</svg>