<svg xmlns="http://www.w3.org/2000/svg" fill="none" viewBox="24.332530120481927 24.310000000000002 546.7662650602409 667.8100000000001" style="max-height: 500px" width="546.7662650602409" height="667.8100000000001">
<g filter="url(#filter0_d_1_58779)">
<rect fill="#54BD95" rx="6" height="665" width="543.5" y="25" x="25"/>
<path stroke-miterlimit="10" stroke-width="7" stroke="#87E1BF" d="M79.5 358V59"/>
<path stroke-miterlimit="10" stroke-width="7" stroke="#87E1BF" d="M97.5 358V59"/>
<path stroke-miterlimit="10" stroke-width="7" stroke="#87E1BF" d="M115.5 358V59"/>
<path stroke-miterlimit="10" stroke-width="7" stroke="#87E1BF" d="M133.5 358V59"/>
<path stroke-miterlimit="10" stroke-width="7" stroke="#87E1BF" d="M151.5 358V59"/>
<path stroke-miterlimit="10" stroke-width="7" stroke="#87E1BF" d="M170.5 358V59"/>
<path stroke-miterlimit="10" stroke-width="7" stroke="#87E1BF" d="M186.5 358V59"/>
<path stroke-miterlimit="10" stroke-width="7" stroke="#87E1BF" d="M205.5 358V59"/>
<path stroke-miterlimit="10" stroke-width="7" stroke="#87E1BF" d="M223.5 358V59"/>
<path stroke-miterlimit="10" stroke-width="7" stroke="#87E1BF" d="M241.5 358V59"/>
<path stroke-miterlimit="10" stroke-width="7" stroke="#87E1BF" d="M259.5 358V59"/>
<path stroke-miterlimit="10" stroke-width="7" stroke="#87E1BF" d="M277.5 358V59"/>
<path stroke-miterlimit="10" stroke-width="15" stroke="#87E1BF" d="M536 57.5V657.5H58V57.5H536Z"/>
<path stroke-miterlimit="10" stroke-width="15" stroke="#87E1BF" d="M543.5 358L57.5 358"/>
<path stroke-miterlimit="10" stroke-width="15" stroke="#87E1BF" d="M297.5 657L297.5 59"/>
<path fill="#FEE900" d="M263.5 595H87.5V531.869L175.506 426L263.5 531.869V595Z"/>
<path stroke-miterlimit="10" stroke-width="6" stroke="#DBE5FA" d="M497.5 522.762L455.603 523.455L491.867 544.436L451.333 533.802L480.576 563.78L444.42 542.619L464.489 579.36L435.39 549.239L444.791 590.042L424.913 553.193L422.939 595L413.742 554.161L400.562 593.901L402.738 552.094L379.308 586.804L392.692 547.136L360.758 574.234L384.355 539.644L346.286 557.136L378.351 530.193L336.968 536.777L375.134 519.476L333.5 514.661L374.919 508.28L336.131 492.425L377.741 497.444L344.671 471.731L383.375 487.777L358.485 454.096L391.424 479.987L376.545 440.845L401.267 474.647L397.524 432.948L412.199 472.161L419.842 431L423.394 472.711L441.873 435.146L434.015 476.26L461.954 445.063L443.296 482.544L478.627 460.034L450.52 491.099L490.623 478.948L455.184 501.279L497.081 500.383L456.919 512.331L497.5 522.762Z"/>
<path fill="#FEE900" d="M373.5 285C392.278 285 407.5 270.002 407.5 251.5C407.5 232.998 392.278 218 373.5 218C354.722 218 339.5 232.998 339.5 251.5C339.5 270.002 354.722 285 373.5 285Z"/>
<path fill="#54BD95" d="M458 285C476.502 285 491.5 270.002 491.5 251.5C491.5 232.998 476.502 218 458 218C439.498 218 424.5 232.998 424.5 251.5C424.5 270.002 439.498 285 458 285Z"/>
<path fill="#FEE900" d="M373.5 196C392.278 196 407.5 181.002 407.5 162.5C407.5 143.998 392.278 129 373.5 129C354.722 129 339.5 143.998 339.5 162.5C339.5 181.002 354.722 196 373.5 196Z"/>
<path fill="#FEE900" d="M458 196C476.502 196 491.5 181.002 491.5 162.5C491.5 143.998 476.502 129 458 129C439.498 129 424.5 143.998 424.5 162.5C424.5 181.002 439.498 196 458 196Z"/>
</g>
<defs>
<filter color-interpolation-filters="sRGB" filterUnits="userSpaceOnUse" height="715" width="593.5" y="0" x="0" id="filter0_d_1_58779">
<feFlood result="BackgroundImageFix" flood-opacity="0"/>
<feColorMatrix result="hardAlpha" values="0 0 0 0 0 0 0 0 0 0 0 0 0 0 0 0 0 0 127 0" type="matrix" in="SourceAlpha"/>
<feOffset/>
<feGaussianBlur stdDeviation="12.5"/>
<feComposite operator="out" in2="hardAlpha"/>
<feColorMatrix values="0 0 0 0 0.184233 0 0 0 0 0.223383 0 0 0 0 0.404167 0 0 0 0.15 0" type="matrix"/>
<feBlend result="effect1_dropShadow_1_58779" in2="BackgroundImageFix" mode="normal"/>
<feBlend result="shape" in2="effect1_dropShadow_1_58779" in="SourceGraphic" mode="normal"/>
</filter>
</defs>
</svg>