<svg xmlns="http://www.w3.org/2000/svg" fill="none" viewBox="24.334033613445378 24.336 544.7079831932773 263.328" style="max-height: 500px" width="544.7079831932773" height="263.328">
<g filter="url(#filter0_d_1_58724)">
<g clip-path="url(#clip0_1_58724)">
<rect fill="#F9F8FE" rx="6" height="261.5" width="543.5" y="25" x="25"/>
<path fill="#54BD95" d="M256.5 132.361C256.497 126.219 255.059 120.153 252.287 114.586C249.516 109.02 245.477 104.088 240.455 100.136C235.432 96.1844 229.548 93.3085 223.213 91.71C216.878 90.1114 210.247 89.8289 203.783 90.8821C197.319 91.9353 191.18 94.2989 185.794 97.8071C180.409 101.315 175.909 105.883 172.608 111.191C169.308 116.499 167.287 122.418 166.688 128.534C166.089 134.65 166.926 140.814 169.139 146.596H253.852C255.607 142.03 256.503 137.213 256.5 132.361Z"/>
<path fill="#DBE5FA" d="M325.048 64.906C319.385 64.9046 313.772 65.8909 308.5 67.8136V146.505C314.722 148.77 321.404 149.731 328.071 149.32C334.738 148.908 341.226 147.135 347.071 144.125C352.917 141.116 357.976 136.944 361.89 131.908C365.804 126.872 368.475 121.095 369.713 114.989C370.951 108.884 370.726 102.599 369.054 96.5833C367.381 90.5676 364.303 84.9689 360.037 80.1862C355.772 75.4035 350.425 71.5544 344.377 68.9133C338.329 66.2721 331.729 64.9038 325.048 64.906Z"/>
<path fill="#0F8CE9" d="M275.466 189.787C268.608 189.791 261.834 191.204 255.62 193.928C249.405 196.651 243.901 200.619 239.493 205.553C235.085 210.487 231.88 216.267 230.104 222.487C228.327 228.708 228.022 235.219 229.21 241.562C230.398 247.905 233.05 253.927 236.979 259.205C240.909 264.483 246.021 268.89 251.957 272.115C257.893 275.341 264.509 277.307 271.34 277.877C278.171 278.446 285.052 277.604 291.5 275.41V192.426C286.36 190.678 280.934 189.785 275.466 189.787Z"/>
<path fill="#FEE900" d="M375.5 261.148C397.591 261.148 415.5 244.333 415.5 223.59C415.5 202.847 397.591 186.031 375.5 186.031C353.409 186.031 335.5 202.847 335.5 223.59C335.5 244.333 353.409 261.148 375.5 261.148Z"/>
<path stroke-miterlimit="10" stroke-width="15" stroke="#54BD95" d="M301 31.1152V159.729H28V31.1152H301Z"/>
<path stroke-miterlimit="10" stroke-width="15" stroke="#54BD95" d="M566 31.1152V159.729H301V31.1152H566Z"/>
<path stroke-miterlimit="10" stroke-width="15" stroke="#54BD95" d="M299 151.303V279.917H33V151.303H299Z"/>
<path stroke-miterlimit="10" stroke-width="15" stroke="#54BD95" d="M561 151.303V279.917H301V151.303H561Z"/>
</g>
</g>
<defs>
<filter color-interpolation-filters="sRGB" filterUnits="userSpaceOnUse" height="311.5" width="593.5" y="0" x="0" id="filter0_d_1_58724">
<feFlood result="BackgroundImageFix" flood-opacity="0"/>
<feColorMatrix result="hardAlpha" values="0 0 0 0 0 0 0 0 0 0 0 0 0 0 0 0 0 0 127 0" type="matrix" in="SourceAlpha"/>
<feOffset/>
<feGaussianBlur stdDeviation="12.5"/>
<feComposite operator="out" in2="hardAlpha"/>
<feColorMatrix values="0 0 0 0 0.184233 0 0 0 0 0.223383 0 0 0 0 0.404167 0 0 0 0.15 0" type="matrix"/>
<feBlend result="effect1_dropShadow_1_58724" in2="BackgroundImageFix" mode="normal"/>
<feBlend result="shape" in2="effect1_dropShadow_1_58724" in="SourceGraphic" mode="normal"/>
</filter>
<clipPath id="clip0_1_58724">
<rect fill="white" rx="6" height="261.5" width="543.5" y="25" x="25"/>
</clipPath>
</defs>
</svg>